<?xml version="1.0" encoding="utf-8"?>
<svg xmlns="http://www.w3.org/2000/svg" xmlns:xlink="http://www.w3.org/1999/xlink" width="600" height="400" viewBox="0 0 2400 1600">
<defs>
  <clipPath id="clip240">
    <rect x="0" y="0" width="2400" height="1600"/>
  </clipPath>
</defs>
<path clip-path="url(#clip240)" d="
M0 1600 L2400 1600 L2400 0 L0 0  Z
  " fill="#ffffff" fill-rule="evenodd" fill-opacity="1"/>
<defs>
  <clipPath id="clip241">
    <rect x="480" y="0" width="1681" height="1600"/>
  </clipPath>
</defs>
<path clip-path="url(#clip240)" d="
M227.204 1423.18 L2352.76 1423.18 L2352.76 47.2441 L227.204 47.2441  Z
  " fill="#ffffff" fill-rule="evenodd" fill-opacity="1"/>
<defs>
  <clipPath id="clip242">
    <rect x="227" y="47" width="2127" height="1377"/>
  </clipPath>
</defs>
<polyline clip-path="url(#clip242)" style="stroke:#000000; stroke-width:2; stroke-opacity:0.1; fill:none" points="
  227.204,1423.18 227.204,47.2441 
  "/>
<polyline clip-path="url(#clip242)" style="stroke:#000000; stroke-width:2; stroke-opacity:0.1; fill:none" points="
  652.315,1423.18 652.315,47.2441 
  "/>
<polyline clip-path="url(#clip242)" style="stroke:#000000; stroke-width:2; stroke-opacity:0.1; fill:none" points="
  1077.42,1423.18 1077.42,47.2441 
  "/>
<polyline clip-path="url(#clip242)" style="stroke:#000000; stroke-width:2; stroke-opacity:0.1; fill:none" points="
  1502.54,1423.18 1502.54,47.2441 
  "/>
<polyline clip-path="url(#clip242)" style="stroke:#000000; stroke-width:2; stroke-opacity:0.1; fill:none" points="
  1927.65,1423.18 1927.65,47.2441 
  "/>
<polyline clip-path="url(#clip242)" style="stroke:#000000; stroke-width:2; stroke-opacity:0.1; fill:none" points="
  2352.76,1423.18 2352.76,47.2441 
  "/>
<polyline clip-path="url(#clip242)" style="stroke:#000000; stroke-width:2; stroke-opacity:0.1; fill:none" points="
  227.204,1230.86 2352.76,1230.86 
  "/>
<polyline clip-path="url(#clip242)" style="stroke:#000000; stroke-width:2; stroke-opacity:0.1; fill:none" points="
  227.204,983.03 2352.76,983.03 
  "/>
<polyline clip-path="url(#clip242)" style="stroke:#000000; stroke-width:2; stroke-opacity:0.1; fill:none" points="
  227.204,735.203 2352.76,735.203 
  "/>
<polyline clip-path="url(#clip242)" style="stroke:#000000; stroke-width:2; stroke-opacity:0.1; fill:none" points="
  227.204,487.375 2352.76,487.375 
  "/>
<polyline clip-path="url(#clip242)" style="stroke:#000000; stroke-width:2; stroke-opacity:0.1; fill:none" points="
  227.204,239.547 2352.76,239.547 
  "/>
<polyline clip-path="url(#clip240)" style="stroke:#000000; stroke-width:4; stroke-opacity:1; fill:none" points="
  227.204,1423.18 2352.76,1423.18 
  "/>
<polyline clip-path="url(#clip240)" style="stroke:#000000; stroke-width:4; stroke-opacity:1; fill:none" points="
  227.204,1423.18 227.204,47.2441 
  "/>
<polyline clip-path="url(#clip240)" style="stroke:#000000; stroke-width:4; stroke-opacity:1; fill:none" points="
  227.204,1423.18 227.204,1406.67 
  "/>
<polyline clip-path="url(#clip240)" style="stroke:#000000; stroke-width:4; stroke-opacity:1; fill:none" points="
  652.315,1423.18 652.315,1406.67 
  "/>
<polyline clip-path="url(#clip240)" style="stroke:#000000; stroke-width:4; stroke-opacity:1; fill:none" points="
  1077.42,1423.18 1077.42,1406.67 
  "/>
<polyline clip-path="url(#clip240)" style="stroke:#000000; stroke-width:4; stroke-opacity:1; fill:none" points="
  1502.54,1423.18 1502.54,1406.67 
  "/>
<polyline clip-path="url(#clip240)" style="stroke:#000000; stroke-width:4; stroke-opacity:1; fill:none" points="
  1927.65,1423.18 1927.65,1406.67 
  "/>
<polyline clip-path="url(#clip240)" style="stroke:#000000; stroke-width:4; stroke-opacity:1; fill:none" points="
  2352.76,1423.18 2352.76,1406.67 
  "/>
<polyline clip-path="url(#clip240)" style="stroke:#000000; stroke-width:4; stroke-opacity:1; fill:none" points="
  227.204,1230.86 252.711,1230.86 
  "/>
<polyline clip-path="url(#clip240)" style="stroke:#000000; stroke-width:4; stroke-opacity:1; fill:none" points="
  227.204,983.03 252.711,983.03 
  "/>
<polyline clip-path="url(#clip240)" style="stroke:#000000; stroke-width:4; stroke-opacity:1; fill:none" points="
  227.204,735.203 252.711,735.203 
  "/>
<polyline clip-path="url(#clip240)" style="stroke:#000000; stroke-width:4; stroke-opacity:1; fill:none" points="
  227.204,487.375 252.711,487.375 
  "/>
<polyline clip-path="url(#clip240)" style="stroke:#000000; stroke-width:4; stroke-opacity:1; fill:none" points="
  227.204,239.547 252.711,239.547 
  "/>
<path clip-path="url(#clip240)" d="M 0 0 M208.72 1445.17 Q205.109 1445.17 203.281 1448.74 Q201.475 1452.28 201.475 1459.41 Q201.475 1466.51 203.281 1470.08 Q205.109 1473.62 208.72 1473.62 Q212.355 1473.62 214.16 1470.08 Q215.989 1466.51 215.989 1459.41 Q215.989 1452.28 214.16 1448.74 Q212.355 1445.17 208.72 1445.17 M208.72 1441.47 Q214.531 1441.47 217.586 1446.07 Q220.665 1450.66 220.665 1459.41 Q220.665 1468.13 217.586 1472.74 Q214.531 1477.32 208.72 1477.32 Q202.91 1477.32 199.832 1472.74 Q196.776 1468.13 196.776 1459.41 Q196.776 1450.66 199.832 1446.07 Q202.91 1441.47 208.72 1441.47 Z" fill="#000000" fill-rule="evenodd" fill-opacity="1" /><path clip-path="url(#clip240)" d="M 0 0 M225.734 1470.77 L230.619 1470.77 L230.619 1476.65 L225.734 1476.65 L225.734 1470.77 Z" fill="#000000" fill-rule="evenodd" fill-opacity="1" /><path clip-path="url(#clip240)" d="M 0 0 M245.688 1445.17 Q242.077 1445.17 240.248 1448.74 Q238.443 1452.28 238.443 1459.41 Q238.443 1466.51 240.248 1470.08 Q242.077 1473.62 245.688 1473.62 Q249.322 1473.62 251.128 1470.08 Q252.956 1466.51 252.956 1459.41 Q252.956 1452.28 251.128 1448.74 Q249.322 1445.17 245.688 1445.17 M245.688 1441.47 Q251.498 1441.47 254.554 1446.07 Q257.632 1450.66 257.632 1459.41 Q257.632 1468.13 254.554 1472.74 Q251.498 1477.32 245.688 1477.32 Q239.878 1477.32 236.799 1472.74 Q233.744 1468.13 233.744 1459.41 Q233.744 1450.66 236.799 1446.07 Q239.878 1441.47 245.688 1441.47 Z" fill="#000000" fill-rule="evenodd" fill-opacity="1" /><path clip-path="url(#clip240)" d="M 0 0 M634.629 1445.17 Q631.018 1445.17 629.19 1448.74 Q627.384 1452.28 627.384 1459.41 Q627.384 1466.51 629.19 1470.08 Q631.018 1473.62 634.629 1473.62 Q638.264 1473.62 640.069 1470.08 Q641.898 1466.51 641.898 1459.41 Q641.898 1452.28 640.069 1448.74 Q638.264 1445.17 634.629 1445.17 M634.629 1441.47 Q640.44 1441.47 643.495 1446.07 Q646.574 1450.66 646.574 1459.41 Q646.574 1468.13 643.495 1472.74 Q640.44 1477.32 634.629 1477.32 Q628.819 1477.32 625.741 1472.74 Q622.685 1468.13 622.685 1459.41 Q622.685 1450.66 625.741 1446.07 Q628.819 1441.47 634.629 1441.47 Z" fill="#000000" fill-rule="evenodd" fill-opacity="1" /><path clip-path="url(#clip240)" d="M 0 0 M651.643 1470.77 L656.527 1470.77 L656.527 1476.65 L651.643 1476.65 L651.643 1470.77 Z" fill="#000000" fill-rule="evenodd" fill-opacity="1" /><path clip-path="url(#clip240)" d="M 0 0 M665.625 1472.72 L681.944 1472.72 L681.944 1476.65 L660 1476.65 L660 1472.72 Q662.662 1469.96 667.245 1465.33 Q671.851 1460.68 673.032 1459.34 Q675.277 1456.81 676.157 1455.08 Q677.06 1453.32 677.06 1451.63 Q677.06 1448.87 675.115 1447.14 Q673.194 1445.4 670.092 1445.4 Q667.893 1445.4 665.439 1446.17 Q663.009 1446.93 660.231 1448.48 L660.231 1443.76 Q663.055 1442.62 665.509 1442.05 Q667.963 1441.47 670 1441.47 Q675.37 1441.47 678.564 1444.15 Q681.759 1446.84 681.759 1451.33 Q681.759 1453.46 680.949 1455.38 Q680.162 1457.28 678.055 1459.87 Q677.476 1460.54 674.375 1463.76 Q671.273 1466.95 665.625 1472.72 Z" fill="#000000" fill-rule="evenodd" fill-opacity="1" /><path clip-path="url(#clip240)" d="M 0 0 M1058.7 1445.17 Q1055.09 1445.17 1053.26 1448.74 Q1051.45 1452.28 1051.45 1459.41 Q1051.45 1466.51 1053.26 1470.08 Q1055.09 1473.62 1058.7 1473.62 Q1062.33 1473.62 1064.14 1470.08 Q1065.97 1466.51 1065.97 1459.41 Q1065.97 1452.28 1064.14 1448.74 Q1062.33 1445.17 1058.7 1445.17 M1058.7 1441.47 Q1064.51 1441.47 1067.56 1446.07 Q1070.64 1450.66 1070.64 1459.41 Q1070.64 1468.13 1067.56 1472.74 Q1064.51 1477.32 1058.7 1477.32 Q1052.89 1477.32 1049.81 1472.74 Q1046.75 1468.13 1046.75 1459.41 Q1046.75 1450.66 1049.81 1446.07 Q1052.89 1441.47 1058.7 1441.47 Z" fill="#000000" fill-rule="evenodd" fill-opacity="1" /><path clip-path="url(#clip240)" d="M 0 0 M1075.71 1470.77 L1080.6 1470.77 L1080.6 1476.65 L1075.71 1476.65 L1075.71 1470.77 Z" fill="#000000" fill-rule="evenodd" fill-opacity="1" /><path clip-path="url(#clip240)" d="M 0 0 M1098.51 1446.17 L1086.71 1464.61 L1098.51 1464.61 L1098.51 1446.17 M1097.29 1442.09 L1103.17 1442.09 L1103.17 1464.61 L1108.1 1464.61 L1108.1 1468.5 L1103.17 1468.5 L1103.17 1476.65 L1098.51 1476.65 L1098.51 1468.5 L1082.91 1468.5 L1082.91 1463.99 L1097.29 1442.09 Z" fill="#000000" fill-rule="evenodd" fill-opacity="1" /><path clip-path="url(#clip240)" d="M 0 0 M1483.97 1445.17 Q1480.36 1445.17 1478.53 1448.74 Q1476.73 1452.28 1476.73 1459.41 Q1476.73 1466.51 1478.53 1470.08 Q1480.36 1473.62 1483.97 1473.62 Q1487.6 1473.62 1489.41 1470.08 Q1491.24 1466.51 1491.24 1459.41 Q1491.24 1452.28 1489.41 1448.74 Q1487.6 1445.17 1483.97 1445.17 M1483.97 1441.47 Q1489.78 1441.47 1492.84 1446.07 Q1495.91 1450.66 1495.91 1459.41 Q1495.91 1468.13 1492.84 1472.74 Q1489.78 1477.32 1483.97 1477.32 Q1478.16 1477.32 1475.08 1472.74 Q1472.03 1468.13 1472.03 1459.41 Q1472.03 1450.66 1475.08 1446.07 Q1478.16 1441.47 1483.97 1441.47 Z" fill="#000000" fill-rule="evenodd" fill-opacity="1" /><path clip-path="url(#clip240)" d="M 0 0 M1500.98 1470.77 L1505.87 1470.77 L1505.87 1476.65 L1500.98 1476.65 L1500.98 1470.77 Z" fill="#000000" fill-rule="evenodd" fill-opacity="1" /><path clip-path="url(#clip240)" d="M 0 0 M1521.52 1457.51 Q1518.37 1457.51 1516.52 1459.66 Q1514.69 1461.81 1514.69 1465.56 Q1514.69 1469.29 1516.52 1471.47 Q1518.37 1473.62 1521.52 1473.62 Q1524.66 1473.62 1526.49 1471.47 Q1528.35 1469.29 1528.35 1465.56 Q1528.35 1461.81 1526.49 1459.66 Q1524.66 1457.51 1521.52 1457.51 M1530.8 1442.86 L1530.8 1447.11 Q1529.04 1446.28 1527.23 1445.84 Q1525.45 1445.4 1523.69 1445.4 Q1519.06 1445.4 1516.61 1448.53 Q1514.18 1451.65 1513.83 1457.97 Q1515.2 1455.96 1517.26 1454.89 Q1519.32 1453.8 1521.79 1453.8 Q1527 1453.8 1530.01 1456.98 Q1533.04 1460.12 1533.04 1465.56 Q1533.04 1470.89 1529.9 1474.11 Q1526.75 1477.32 1521.52 1477.32 Q1515.52 1477.32 1512.35 1472.74 Q1509.18 1468.13 1509.18 1459.41 Q1509.18 1451.21 1513.07 1446.35 Q1516.96 1441.47 1523.51 1441.47 Q1525.27 1441.47 1527.05 1441.81 Q1528.85 1442.16 1530.8 1442.86 Z" fill="#000000" fill-rule="evenodd" fill-opacity="1" /><path clip-path="url(#clip240)" d="M 0 0 M1909.21 1445.17 Q1905.6 1445.17 1903.77 1448.74 Q1901.96 1452.28 1901.96 1459.41 Q1901.96 1466.51 1903.77 1470.08 Q1905.6 1473.62 1909.21 1473.62 Q1912.84 1473.62 1914.65 1470.08 Q1916.48 1466.51 1916.48 1459.41 Q1916.48 1452.28 1914.65 1448.74 Q1912.84 1445.17 1909.21 1445.17 M1909.21 1441.47 Q1915.02 1441.47 1918.07 1446.07 Q1921.15 1450.66 1921.15 1459.41 Q1921.15 1468.13 1918.07 1472.74 Q1915.02 1477.32 1909.21 1477.32 Q1903.4 1477.32 1900.32 1472.74 Q1897.26 1468.13 1897.26 1459.41 Q1897.26 1450.66 1900.32 1446.07 Q1903.4 1441.47 1909.21 1441.47 Z" fill="#000000" fill-rule="evenodd" fill-opacity="1" /><path clip-path="url(#clip240)" d="M 0 0 M1926.22 1470.77 L1931.11 1470.77 L1931.11 1476.65 L1926.22 1476.65 L1926.22 1470.77 Z" fill="#000000" fill-rule="evenodd" fill-opacity="1" /><path clip-path="url(#clip240)" d="M 0 0 M1946.18 1460.24 Q1942.84 1460.24 1940.92 1462.02 Q1939.02 1463.8 1939.02 1466.93 Q1939.02 1470.05 1940.92 1471.84 Q1942.84 1473.62 1946.18 1473.62 Q1949.51 1473.62 1951.43 1471.84 Q1953.35 1470.03 1953.35 1466.93 Q1953.35 1463.8 1951.43 1462.02 Q1949.53 1460.24 1946.18 1460.24 M1941.5 1458.25 Q1938.49 1457.51 1936.8 1455.45 Q1935.13 1453.39 1935.13 1450.43 Q1935.13 1446.28 1938.07 1443.87 Q1941.04 1441.47 1946.18 1441.47 Q1951.34 1441.47 1954.28 1443.87 Q1957.22 1446.28 1957.22 1450.43 Q1957.22 1453.39 1955.53 1455.45 Q1953.86 1457.51 1950.87 1458.25 Q1954.25 1459.04 1956.13 1461.33 Q1958.03 1463.62 1958.03 1466.93 Q1958.03 1471.95 1954.95 1474.64 Q1951.89 1477.32 1946.18 1477.32 Q1940.46 1477.32 1937.38 1474.64 Q1934.32 1471.95 1934.32 1466.93 Q1934.32 1463.62 1936.22 1461.33 Q1938.12 1459.04 1941.5 1458.25 M1939.79 1450.86 Q1939.79 1453.55 1941.45 1455.05 Q1943.14 1456.56 1946.18 1456.56 Q1949.18 1456.56 1950.87 1455.05 Q1952.59 1453.55 1952.59 1450.86 Q1952.59 1448.18 1950.87 1446.68 Q1949.18 1445.17 1946.18 1445.17 Q1943.14 1445.17 1941.45 1446.68 Q1939.79 1448.18 1939.79 1450.86 Z" fill="#000000" fill-rule="evenodd" fill-opacity="1" /><path clip-path="url(#clip240)" d="M 0 0 M2324.65 1472.72 L2332.29 1472.72 L2332.29 1446.35 L2323.98 1448.02 L2323.98 1443.76 L2332.25 1442.09 L2336.92 1442.09 L2336.92 1472.72 L2344.56 1472.72 L2344.56 1476.65 L2324.65 1476.65 L2324.65 1472.72 Z" fill="#000000" fill-rule="evenodd" fill-opacity="1" /><path clip-path="url(#clip240)" d="M 0 0 M2349.63 1470.77 L2354.52 1470.77 L2354.52 1476.65 L2349.63 1476.65 L2349.63 1470.77 Z" fill="#000000" fill-rule="evenodd" fill-opacity="1" /><path clip-path="url(#clip240)" d="M 0 0 M2369.58 1445.17 Q2365.97 1445.17 2364.14 1448.74 Q2362.34 1452.28 2362.34 1459.41 Q2362.34 1466.51 2364.14 1470.08 Q2365.97 1473.62 2369.58 1473.62 Q2373.22 1473.62 2375.02 1470.08 Q2376.85 1466.51 2376.85 1459.41 Q2376.85 1452.28 2375.02 1448.74 Q2373.22 1445.17 2369.58 1445.17 M2369.58 1441.47 Q2375.39 1441.47 2378.45 1446.07 Q2381.53 1450.66 2381.53 1459.41 Q2381.53 1468.13 2378.45 1472.74 Q2375.39 1477.32 2369.58 1477.32 Q2363.77 1477.32 2360.7 1472.74 Q2357.64 1468.13 2357.64 1459.41 Q2357.64 1450.66 2360.7 1446.07 Q2363.77 1441.47 2369.58 1441.47 Z" fill="#000000" fill-rule="evenodd" fill-opacity="1" /><path clip-path="url(#clip240)" d="M 0 0 M126.26 1233.25 L138.737 1233.25 L138.737 1237.05 L126.26 1237.05 L126.26 1233.25 Z" fill="#000000" fill-rule="evenodd" fill-opacity="1" /><path clip-path="url(#clip240)" d="M 0 0 M153.806 1216.66 Q150.195 1216.66 148.367 1220.22 Q146.561 1223.76 146.561 1230.89 Q146.561 1238 148.367 1241.56 Q150.195 1245.11 153.806 1245.11 Q157.441 1245.11 159.246 1241.56 Q161.075 1238 161.075 1230.89 Q161.075 1223.76 159.246 1220.22 Q157.441 1216.66 153.806 1216.66 M153.806 1212.95 Q159.616 1212.95 162.672 1217.56 Q165.751 1222.14 165.751 1230.89 Q165.751 1239.62 162.672 1244.23 Q159.616 1248.81 153.806 1248.81 Q147.996 1248.81 144.917 1244.23 Q141.862 1239.62 141.862 1230.89 Q141.862 1222.14 144.917 1217.56 Q147.996 1212.95 153.806 1212.95 Z" fill="#000000" fill-rule="evenodd" fill-opacity="1" /><path clip-path="url(#clip240)" d="M 0 0 M170.82 1242.26 L175.704 1242.26 L175.704 1248.14 L170.82 1248.14 L170.82 1242.26 Z" fill="#000000" fill-rule="evenodd" fill-opacity="1" /><path clip-path="url(#clip240)" d="M 0 0 M193.621 1217.65 L181.815 1236.1 L193.621 1236.1 L193.621 1217.65 M192.394 1213.58 L198.274 1213.58 L198.274 1236.1 L203.204 1236.1 L203.204 1239.99 L198.274 1239.99 L198.274 1248.14 L193.621 1248.14 L193.621 1239.99 L178.019 1239.99 L178.019 1235.48 L192.394 1213.58 Z" fill="#000000" fill-rule="evenodd" fill-opacity="1" /><path clip-path="url(#clip240)" d="M 0 0 M128.343 985.426 L140.82 985.426 L140.82 989.222 L128.343 989.222 L128.343 985.426 Z" fill="#000000" fill-rule="evenodd" fill-opacity="1" /><path clip-path="url(#clip240)" d="M 0 0 M155.89 968.829 Q152.279 968.829 150.45 972.394 Q148.644 975.935 148.644 983.065 Q148.644 990.171 150.45 993.736 Q152.279 997.278 155.89 997.278 Q159.524 997.278 161.329 993.736 Q163.158 990.171 163.158 983.065 Q163.158 975.935 161.329 972.394 Q159.524 968.829 155.89 968.829 M155.89 965.125 Q161.7 965.125 164.755 969.732 Q167.834 974.315 167.834 983.065 Q167.834 991.792 164.755 996.398 Q161.7 1000.98 155.89 1000.98 Q150.079 1000.98 147.001 996.398 Q143.945 991.792 143.945 983.065 Q143.945 974.315 147.001 969.732 Q150.079 965.125 155.89 965.125 Z" fill="#000000" fill-rule="evenodd" fill-opacity="1" /><path clip-path="url(#clip240)" d="M 0 0 M172.903 994.431 L177.788 994.431 L177.788 1000.31 L172.903 1000.31 L172.903 994.431 Z" fill="#000000" fill-rule="evenodd" fill-opacity="1" /><path clip-path="url(#clip240)" d="M 0 0 M186.885 996.375 L203.204 996.375 L203.204 1000.31 L181.26 1000.31 L181.26 996.375 Q183.922 993.62 188.505 988.991 Q193.112 984.338 194.292 982.996 Q196.538 980.472 197.417 978.736 Q198.32 976.977 198.32 975.287 Q198.32 972.533 196.376 970.797 Q194.454 969.06 191.352 969.06 Q189.153 969.06 186.7 969.824 Q184.269 970.588 181.491 972.139 L181.491 967.417 Q184.315 966.283 186.769 965.704 Q189.223 965.125 191.26 965.125 Q196.63 965.125 199.825 967.81 Q203.019 970.496 203.019 974.986 Q203.019 977.116 202.209 979.037 Q201.422 980.935 199.315 983.528 Q198.737 984.199 195.635 987.417 Q192.533 990.611 186.885 996.375 Z" fill="#000000" fill-rule="evenodd" fill-opacity="1" /><path clip-path="url(#clip240)" d="M 0 0 M154.292 721.001 Q150.681 721.001 148.853 724.566 Q147.047 728.108 147.047 735.237 Q147.047 742.344 148.853 745.909 Q150.681 749.45 154.292 749.45 Q157.927 749.45 159.732 745.909 Q161.561 742.344 161.561 735.237 Q161.561 728.108 159.732 724.566 Q157.927 721.001 154.292 721.001 M154.292 717.298 Q160.103 717.298 163.158 721.904 Q166.237 726.487 166.237 735.237 Q166.237 743.964 163.158 748.571 Q160.103 753.154 154.292 753.154 Q148.482 753.154 145.404 748.571 Q142.348 743.964 142.348 735.237 Q142.348 726.487 145.404 721.904 Q148.482 717.298 154.292 717.298 Z" fill="#000000" fill-rule="evenodd" fill-opacity="1" /><path clip-path="url(#clip240)" d="M 0 0 M171.306 746.603 L176.19 746.603 L176.19 752.483 L171.306 752.483 L171.306 746.603 Z" fill="#000000" fill-rule="evenodd" fill-opacity="1" /><path clip-path="url(#clip240)" d="M 0 0 M191.26 721.001 Q187.649 721.001 185.82 724.566 Q184.014 728.108 184.014 735.237 Q184.014 742.344 185.82 745.909 Q187.649 749.45 191.26 749.45 Q194.894 749.45 196.7 745.909 Q198.528 742.344 198.528 735.237 Q198.528 728.108 196.7 724.566 Q194.894 721.001 191.26 721.001 M191.26 717.298 Q197.07 717.298 200.126 721.904 Q203.204 726.487 203.204 735.237 Q203.204 743.964 200.126 748.571 Q197.07 753.154 191.26 753.154 Q185.45 753.154 182.371 748.571 Q179.315 743.964 179.315 735.237 Q179.315 726.487 182.371 721.904 Q185.45 717.298 191.26 717.298 Z" fill="#000000" fill-rule="evenodd" fill-opacity="1" /><path clip-path="url(#clip240)" d="M 0 0 M155.89 473.174 Q152.279 473.174 150.45 476.739 Q148.644 480.28 148.644 487.41 Q148.644 494.516 150.45 498.081 Q152.279 501.623 155.89 501.623 Q159.524 501.623 161.329 498.081 Q163.158 494.516 163.158 487.41 Q163.158 480.28 161.329 476.739 Q159.524 473.174 155.89 473.174 M155.89 469.47 Q161.7 469.47 164.755 474.077 Q167.834 478.66 167.834 487.41 Q167.834 496.137 164.755 500.743 Q161.7 505.326 155.89 505.326 Q150.079 505.326 147.001 500.743 Q143.945 496.137 143.945 487.41 Q143.945 478.66 147.001 474.077 Q150.079 469.47 155.89 469.47 Z" fill="#000000" fill-rule="evenodd" fill-opacity="1" /><path clip-path="url(#clip240)" d="M 0 0 M172.903 498.775 L177.788 498.775 L177.788 504.655 L172.903 504.655 L172.903 498.775 Z" fill="#000000" fill-rule="evenodd" fill-opacity="1" /><path clip-path="url(#clip240)" d="M 0 0 M186.885 500.72 L203.204 500.72 L203.204 504.655 L181.26 504.655 L181.26 500.72 Q183.922 497.965 188.505 493.336 Q193.112 488.683 194.292 487.34 Q196.538 484.817 197.417 483.081 Q198.32 481.322 198.32 479.632 Q198.32 476.877 196.376 475.141 Q194.454 473.405 191.352 473.405 Q189.153 473.405 186.7 474.169 Q184.269 474.933 181.491 476.484 L181.491 471.762 Q184.315 470.627 186.769 470.049 Q189.223 469.47 191.26 469.47 Q196.63 469.47 199.825 472.155 Q203.019 474.84 203.019 479.331 Q203.019 481.461 202.209 483.382 Q201.422 485.28 199.315 487.873 Q198.737 488.544 195.635 491.762 Q192.533 494.956 186.885 500.72 Z" fill="#000000" fill-rule="evenodd" fill-opacity="1" /><path clip-path="url(#clip240)" d="M 0 0 M153.806 225.346 Q150.195 225.346 148.367 228.911 Q146.561 232.453 146.561 239.582 Q146.561 246.689 148.367 250.253 Q150.195 253.795 153.806 253.795 Q157.441 253.795 159.246 250.253 Q161.075 246.689 161.075 239.582 Q161.075 232.453 159.246 228.911 Q157.441 225.346 153.806 225.346 M153.806 221.642 Q159.616 221.642 162.672 226.249 Q165.751 230.832 165.751 239.582 Q165.751 248.309 162.672 252.915 Q159.616 257.499 153.806 257.499 Q147.996 257.499 144.917 252.915 Q141.862 248.309 141.862 239.582 Q141.862 230.832 144.917 226.249 Q147.996 221.642 153.806 221.642 Z" fill="#000000" fill-rule="evenodd" fill-opacity="1" /><path clip-path="url(#clip240)" d="M 0 0 M170.82 250.948 L175.704 250.948 L175.704 256.827 L170.82 256.827 L170.82 250.948 Z" fill="#000000" fill-rule="evenodd" fill-opacity="1" /><path clip-path="url(#clip240)" d="M 0 0 M193.621 226.342 L181.815 244.79 L193.621 244.79 L193.621 226.342 M192.394 222.267 L198.274 222.267 L198.274 244.79 L203.204 244.79 L203.204 248.679 L198.274 248.679 L198.274 256.827 L193.621 256.827 L193.621 248.679 L178.019 248.679 L178.019 244.166 L192.394 222.267 Z" fill="#000000" fill-rule="evenodd" fill-opacity="1" /><path clip-path="url(#clip240)" d="M 0 0 M1289.04 1510.27 L1289.04 1520.4 L1301.1 1520.4 L1301.1 1524.95 L1289.04 1524.95 L1289.04 1544.3 Q1289.04 1548.66 1290.22 1549.9 Q1291.43 1551.14 1295.09 1551.14 L1301.1 1551.14 L1301.1 1556.04 L1295.09 1556.04 Q1288.31 1556.04 1285.73 1553.53 Q1283.15 1550.98 1283.15 1544.3 L1283.15 1524.95 L1278.86 1524.95 L1278.86 1520.4 L1283.15 1520.4 L1283.15 1510.27 L1289.04 1510.27 Z" fill="#000000" fill-rule="evenodd" fill-opacity="1" /><path clip-path="url(#clip240)" d="M 0 0 M65.4059 725.09 L65.4059 745.365 Q74.9226 744.888 78.9649 742.692 Q83.9301 739.954 83.9301 735.212 Q83.9301 730.438 78.933 727.796 Q74.5407 725.472 65.4059 725.09 M59.995 725.186 Q50.9557 726.077 47.7729 727.796 Q42.744 730.533 42.744 735.212 Q42.744 740.082 47.7092 742.66 Q51.7196 744.697 59.995 745.302 L59.995 725.186 M37.9697 735.212 Q37.9697 727.573 44.7174 723.213 Q51.4332 718.852 63.337 718.852 Q75.2091 718.852 81.9567 723.213 Q88.7362 727.573 88.7362 735.212 Q88.7362 742.883 81.9567 747.211 Q75.2091 751.572 63.337 751.572 Q51.4332 751.572 44.7174 747.211 Q37.9697 742.883 37.9697 735.212 Z" fill="#000000" fill-rule="evenodd" fill-opacity="1" /><polyline clip-path="url(#clip242)" style="stroke:#000000; stroke-width:4; stroke-opacity:1; fill:none" points="
  227.204,86.3915 229.332,86.6957 231.46,87.6074 233.587,89.1258 235.715,91.2496 237.843,93.9771 239.97,97.3058 242.098,101.233 244.226,105.755 246.353,110.869 
  248.481,116.569 250.609,122.852 252.736,129.711 254.864,137.14 256.992,145.134 259.119,153.684 261.247,162.785 263.375,172.427 265.502,182.603 267.63,193.303 
  269.758,204.517 271.885,216.237 274.013,228.45 276.141,241.147 278.268,254.316 280.396,267.945 282.524,282.022 284.652,296.533 286.779,311.466 288.907,326.806 
  291.035,342.54 293.162,358.652 295.29,375.128 297.418,391.952 299.545,409.109 301.673,426.582 303.801,444.355 305.928,462.41 308.056,480.731 310.184,499.3 
  312.311,518.098 314.439,537.109 316.567,556.313 318.694,575.692 320.822,595.227 322.95,614.899 325.077,634.689 327.205,654.577 329.333,674.544 331.46,694.571 
  333.588,714.638 335.716,734.725 337.844,754.813 339.971,774.881 342.099,794.91 344.227,814.881 346.354,834.774 348.482,854.569 350.61,874.247 352.737,893.789 
  354.865,913.177 356.993,932.39 359.12,951.41 361.248,970.22 363.376,988.8 365.503,1007.13 367.631,1025.2 369.759,1042.99 371.886,1060.48 374.014,1077.65 
  376.142,1094.49 378.269,1110.99 380.397,1127.12 382.525,1142.87 384.652,1158.23 386.78,1173.18 388.908,1187.71 391.036,1201.81 393.163,1215.46 395.291,1228.66 
  397.419,1241.38 399.546,1253.61 401.674,1265.36 403.802,1276.6 405.929,1287.32 408.057,1297.52 410.185,1307.19 412.312,1316.32 414.44,1324.9 416.568,1332.92 
  418.695,1340.38 420.823,1347.26 422.951,1353.57 425.078,1359.3 427.206,1364.45 429.334,1369 431.461,1372.95 433.589,1376.31 435.717,1379.07 437.844,1381.22 
  439.972,1382.77 442.1,1383.71 444.227,1384.04 446.355,1383.77 448.483,1382.89 450.611,1381.4 452.738,1379.31 454.866,1376.61 456.994,1373.31 459.121,1369.41 
  461.249,1364.92 463.377,1359.83 465.504,1354.16 467.632,1347.91 469.76,1341.08 471.887,1333.68 474.015,1325.71 476.143,1317.19 478.27,1308.11 480.398,1298.5 
  482.526,1288.35 484.653,1277.67 486.781,1266.48 488.909,1254.79 491.036,1242.6 493.164,1229.92 495.292,1216.78 497.419,1203.17 499.547,1189.11 501.675,1174.62 
  503.803,1159.71 505.93,1144.39 508.058,1128.68 510.186,1112.58 512.313,1096.12 514.441,1079.31 516.569,1062.17 518.696,1044.71 520.824,1026.95 522.952,1008.91 
  525.079,990.603 527.207,972.045 529.335,953.256 531.462,934.255 533.59,915.059 535.718,895.688 537.845,876.159 539.973,856.492 542.101,836.707 544.228,816.822 
  546.356,796.857 548.484,776.832 550.611,756.766 552.739,736.678 554.867,716.589 556.994,696.519 559.122,676.486 561.25,656.511 563.378,636.613 565.505,616.811 
  567.633,597.126 569.761,577.575 571.888,558.179 574.016,538.956 576.144,519.925 578.271,501.103 580.399,482.51 582.527,464.163 584.654,446.08 586.782,428.277 
  588.91,410.773 591.037,393.584 593.165,376.725 595.293,360.213 597.42,344.063 599.548,328.29 601.676,312.91 603.803,297.935 605.931,283.381 608.059,269.26 
  610.186,255.586 612.314,242.37 614.442,229.625 616.57,217.362 618.697,205.593 620.825,194.328 622.953,183.576 625.08,173.348 627.208,163.652 629.336,154.497 
  631.463,145.891 633.591,137.842 635.719,130.356 637.846,123.44 639.974,117.1 642.102,111.342 644.229,106.17 646.357,101.589 648.485,97.6028 650.612,94.2148 
  652.74,91.4279 654.868,89.2444 656.995,87.6663 659.123,86.6948 661.251,86.3308 663.378,86.5747 665.506,87.4261 667.634,88.8844 669.762,90.9483 671.889,93.6162 
  674.017,96.8856 676.145,100.754 678.272,105.218 680.4,110.273 682.528,115.916 684.655,122.141 686.783,128.944 688.911,136.317 691.038,144.256 693.166,152.753 
  695.294,161.8 697.421,171.389 699.549,181.513 701.677,192.162 703.804,203.327 705.932,214.998 708.06,227.164 710.187,239.815 712.315,252.939 714.443,266.524 
  716.57,280.558 718.698,295.028 720.826,309.92 722.953,325.222 725.081,340.919 727.209,356.996 729.337,373.438 731.464,390.23 733.592,407.356 735.72,424.8 
  737.847,442.545 739.975,460.575 742.103,478.872 744.23,497.418 746.358,516.197 748.486,535.189 750.613,554.376 752.741,573.741 754.869,593.263 756.996,612.924 
  759.124,632.705 761.252,652.586 763.379,672.548 765.507,692.572 767.635,712.638 769.762,732.726 771.89,752.816 774.018,772.889 776.145,792.925 778.273,812.904 
  780.401,832.808 782.529,852.615 784.656,872.308 786.784,891.866 788.912,911.272 791.039,930.505 793.167,949.547 795.295,968.38 797.422,986.986 799.55,1005.35 
  801.678,1023.44 803.805,1041.26 805.933,1058.78 808.061,1075.99 810.188,1092.87 812.316,1109.4 814.444,1125.57 816.571,1141.36 818.699,1156.76 820.827,1171.75 
  822.954,1186.33 825.082,1200.47 827.21,1214.17 829.337,1227.41 831.465,1240.18 833.593,1252.47 835.72,1264.26 837.848,1275.55 839.976,1286.33 842.104,1296.59 
  844.231,1306.31 846.359,1315.49 848.487,1324.13 850.614,1332.2 852.742,1339.72 854.87,1346.66 856.997,1353.03 859.125,1358.82 861.253,1364.02 863.38,1368.63 
  865.508,1372.65 867.636,1376.07 869.763,1378.88 871.891,1381.1 874.019,1382.71 876.146,1383.71 878.274,1384.1 880.402,1383.89 882.529,1383.07 884.657,1381.64 
  886.785,1379.61 888.912,1376.97 891.04,1373.73 893.168,1369.89 895.296,1365.46 897.423,1360.43 899.551,1354.82 901.679,1348.62 903.806,1341.84 905.934,1334.5 
  908.062,1326.59 910.189,1318.12 912.317,1309.1 914.445,1299.54 916.572,1289.44 918.7,1278.81 920.828,1267.67 922.955,1256.03 925.083,1243.89 927.211,1231.26 
  929.338,1218.16 931.466,1204.59 933.594,1190.58 935.721,1176.13 937.849,1161.26 939.977,1145.98 942.104,1130.3 944.232,1114.24 946.36,1097.82 948.488,1081.04 
  950.615,1063.93 952.743,1046.5 954.871,1028.77 956.998,1010.75 959.126,992.467 961.254,973.932 963.381,955.164 965.509,936.181 967.637,917.002 969.764,897.645 
  971.892,878.129 974.02,858.474 976.147,838.697 978.275,818.82 980.403,798.86 982.53,778.838 984.658,758.773 986.786,738.685 988.913,718.593 991.041,698.518 
  993.169,678.479 995.296,658.495 997.424,638.586 999.552,618.773 1001.68,599.073 1003.81,579.506 1005.93,560.092 1008.06,540.849 1010.19,521.795 1012.32,502.95 
  1014.45,484.332 1016.57,465.958 1018.7,447.846 1020.83,430.013 1022.96,412.476 1025.08,395.253 1027.21,378.359 1029.34,361.81 1031.47,345.621 1033.59,329.809 
  1035.72,314.387 1037.85,299.37 1039.98,284.772 1042.11,270.606 1044.23,256.885 1046.36,243.622 1048.49,230.828 1050.62,218.515 1052.74,206.695 1054.87,195.378 
  1057,184.573 1059.13,174.291 1061.25,164.541 1063.38,155.331 1065.51,146.669 1067.64,138.563 1069.77,131.019 1071.89,124.046 1074.02,117.648 1076.15,111.83 
  1078.28,106.599 1080.4,101.958 1082.53,97.9121 1084.66,94.4638 1086.79,91.6163 1088.91,89.3722 1091.04,87.7333 1093.17,86.701 1095.3,86.2762 1097.43,86.4592 
  1099.55,87.25 1101.68,88.6478 1103.81,90.6514 1105.94,93.2591 1108.06,96.4688 1110.19,100.278 1112.32,104.682 1114.45,109.679 1116.57,115.264 1118.7,121.432 
  1120.83,128.177 1122.96,135.495 1125.08,143.378 1127.21,151.82 1129.34,160.813 1131.47,170.35 1133.6,180.421 1135.72,191.019 1137.85,202.134 1139.98,213.756 
  1142.11,225.874 1144.23,238.478 1146.36,251.556 1148.49,265.097 1150.62,279.088 1152.74,293.516 1154.87,308.368 1157,323.631 1159.13,339.291 1161.26,355.332 
  1163.38,371.739 1165.51,388.499 1167.64,405.594 1169.77,423.008 1171.89,440.726 1174.02,458.729 1176.15,477.002 1178.28,495.526 1180.4,514.284 1182.53,533.257 
  1184.66,552.428 1186.79,571.777 1188.92,591.286 1191.04,610.936 1193.17,630.708 1195.3,650.582 1197.43,670.539 1199.55,690.559 1201.68,710.623 1203.81,730.712 
  1205.94,750.805 1208.06,770.882 1210.19,790.925 1212.32,810.913 1214.45,830.826 1216.58,850.646 1218.7,870.353 1220.83,889.928 1222.96,909.351 1225.09,928.604 
  1227.21,947.669 1229.34,966.525 1231.47,985.157 1233.6,1003.54 1235.72,1021.67 1237.85,1039.52 1239.98,1057.07 1242.11,1074.31 1244.23,1091.22 1246.36,1107.79 
  1248.49,1124 1250.62,1139.83 1252.75,1155.27 1254.87,1170.31 1257,1184.93 1259.13,1199.12 1261.26,1212.87 1263.38,1226.15 1265.51,1238.97 1267.64,1251.31 
  1269.77,1263.15 1271.89,1274.5 1274.02,1285.33 1276.15,1295.64 1278.28,1305.42 1280.41,1314.65 1282.53,1323.34 1284.66,1331.48 1286.79,1339.05 1288.92,1346.05 
  1291.04,1352.48 1293.17,1358.33 1295.3,1363.59 1297.43,1368.26 1299.55,1372.34 1301.68,1375.81 1303.81,1378.69 1305.94,1380.97 1308.07,1382.64 1310.19,1383.7 
  1312.32,1384.15 1314.45,1384 1316.58,1383.24 1318.7,1381.87 1320.83,1379.9 1322.96,1377.32 1325.09,1374.14 1327.21,1370.36 1329.34,1365.99 1331.47,1361.02 
  1333.6,1355.47 1335.73,1349.33 1337.85,1342.61 1339.98,1335.32 1342.11,1327.47 1344.24,1319.05 1346.36,1310.09 1348.49,1300.58 1350.62,1290.53 1352.75,1279.96 
  1354.87,1268.87 1357,1257.27 1359.13,1245.18 1361.26,1232.6 1363.38,1219.54 1365.51,1206.02 1367.64,1192.05 1369.77,1177.65 1371.9,1162.82 1374.02,1147.57 
  1376.15,1131.93 1378.28,1115.91 1380.41,1099.52 1382.53,1082.78 1384.66,1065.7 1386.79,1048.3 1388.92,1030.59 1391.04,1012.6 1393.17,994.342 1395.3,975.829 
  1397.43,957.082 1399.56,938.118 1401.68,918.956 1403.81,899.615 1405.94,880.112 1408.07,860.468 1410.19,840.701 1412.32,820.831 1414.45,800.876 1416.58,780.858 
  1418.7,760.794 1420.83,740.706 1422.96,720.612 1425.09,700.532 1427.22,680.486 1429.34,660.494 1431.47,640.575 1433.6,620.749 1435.73,601.035 1437.85,581.452 
  1439.98,562.02 1442.11,542.757 1444.24,523.682 1446.36,504.813 1448.49,486.17 1450.62,467.768 1452.75,449.627 1454.88,431.764 1457,414.195 1459.13,396.938 
  1461.26,380.008 1463.39,363.422 1465.51,347.195 1467.64,331.343 1469.77,315.88 1471.9,300.82 1474.02,286.177 1476.15,271.966 1478.28,258.198 1480.41,244.887 
  1482.54,232.044 1484.66,219.682 1486.79,207.81 1488.92,196.441 1491.05,185.583 1493.17,175.247 1495.3,165.442 1497.43,156.176 1499.56,147.458 1501.68,139.295 
  1503.81,131.694 1505.94,124.662 1508.07,118.205 1510.19,112.328 1512.32,107.037 1514.45,102.337 1516.58,98.23 1518.71,94.721 1520.83,91.8127 1522.96,89.5075 
  1525.09,87.8074 1527.22,86.7138 1529.34,86.2278 1531.47,86.3496 1533.6,87.0792 1535.73,88.416 1537.85,90.3588 1539.98,92.906 1542.11,96.0555 1544.24,99.8044 
  1546.37,104.15 1548.49,109.088 1550.62,114.614 1552.75,120.724 1554.88,127.412 1557,134.673 1559.13,142.5 1561.26,150.887 1563.39,159.825 1565.51,169.308 
  1567.64,179.328 1569.77,189.874 1571.9,200.938 1574.03,212.51 1576.15,224.58 1578.28,237.137 1580.41,250.169 1582.54,263.665 1584.66,277.612 1586.79,291.998 
  1588.92,306.81 1591.05,322.033 1593.17,337.655 1595.3,353.659 1597.43,370.033 1599.56,386.759 1601.69,403.822 1603.81,421.207 1605.94,438.896 1608.07,456.874 
  1610.2,475.122 1612.32,493.623 1614.45,512.36 1616.58,531.314 1618.71,550.467 1620.83,569.801 1622.96,589.297 1625.09,608.935 1627.22,628.698 1629.34,648.564 
  1631.47,668.515 1633.6,688.532 1635.73,708.595 1637.86,728.684 1639.98,748.779 1642.11,768.861 1644.24,788.91 1646.37,808.906 1648.49,828.83 1650.62,848.662 
  1652.75,868.383 1654.88,887.974 1657,907.415 1659.13,926.688 1661.26,945.774 1663.39,964.655 1665.52,983.311 1667.64,1001.73 1669.77,1019.88 1671.9,1037.76 
  1674.03,1055.34 1676.15,1072.62 1678.28,1089.57 1680.41,1106.17 1682.54,1122.42 1684.66,1138.29 1686.79,1153.77 1688.92,1168.86 1691.05,1183.52 1693.18,1197.75 
  1695.3,1211.54 1697.43,1224.88 1699.56,1237.75 1701.69,1250.14 1703.81,1262.03 1705.94,1273.43 1708.07,1284.31 1710.2,1294.68 1712.32,1304.51 1714.45,1313.8 
  1716.58,1322.55 1718.71,1330.74 1720.84,1338.37 1722.96,1345.43 1725.09,1351.92 1727.22,1357.82 1729.35,1363.15 1731.47,1367.88 1733.6,1372.01 1735.73,1375.55 
  1737.86,1378.49 1739.98,1380.83 1742.11,1382.56 1744.24,1383.68 1746.37,1384.2 1748.49,1384.11 1750.62,1383.41 1752.75,1382.1 1754.88,1380.19 1757.01,1377.67 
  1759.13,1374.56 1761.26,1370.84 1763.39,1366.52 1765.52,1361.61 1767.64,1356.12 1769.77,1350.04 1771.9,1343.38 1774.03,1336.14 1776.15,1328.34 1778.28,1319.99 
  1780.41,1311.07 1782.54,1301.62 1784.67,1291.63 1786.79,1281.11 1788.92,1270.07 1791.05,1258.52 1793.18,1246.47 1795.3,1233.94 1797.43,1220.93 1799.56,1207.46 
  1801.69,1193.53 1803.81,1179.17 1805.94,1164.38 1808.07,1149.17 1810.2,1133.57 1812.33,1117.58 1814.45,1101.23 1816.58,1084.52 1818.71,1067.47 1820.84,1050.1 
  1822.96,1032.43 1825.09,1014.46 1827.22,996.228 1829.35,977.738 1831.47,959.012 1833.6,940.067 1835.73,920.923 1837.86,901.597 1839.99,882.108 1842.11,862.475 
  1844.24,842.718 1846.37,822.855 1848.5,802.907 1850.62,782.892 1852.75,762.83 1854.88,742.741 1857.01,722.645 1859.13,702.561 1861.26,682.509 1863.39,662.509 
  1865.52,642.579 1867.65,622.741 1869.77,603.013 1871.9,583.414 1874.03,563.964 1876.16,544.681 1878.28,525.584 1880.41,506.692 1882.54,488.023 1884.67,469.594 
  1886.79,451.424 1888.92,433.53 1891.05,415.929 1893.18,398.638 1895.3,381.673 1897.43,365.05 1899.56,348.784 1901.69,332.892 1903.82,317.387 1905.94,302.284 
  1908.07,287.598 1910.2,273.341 1912.33,259.526 1914.45,246.167 1916.58,233.275 1918.71,220.862 1920.84,208.939 1922.96,197.517 1925.09,186.606 1927.22,176.216 
  1929.35,166.356 1931.48,157.034 1933.6,148.259 1935.73,140.038 1937.86,132.38 1939.99,125.289 1942.11,118.773 1944.24,112.837 1946.37,107.486 1948.5,102.724 
  1950.62,98.5568 1952.75,94.9867 1954.88,92.017 1957.01,89.6503 1959.14,87.8886 1961.26,86.7334 1963.39,86.1857 1965.52,86.2458 1967.65,86.9139 1969.77,88.1893 
  1971.9,90.0708 1974.03,92.5571 1976.16,95.6458 1978.28,99.3344 1980.41,103.62 1982.54,108.498 1984.67,113.965 1986.8,120.017 1988.92,126.647 1991.05,133.851 
  1993.18,141.622 1995.31,149.953 1997.43,158.837 1999.56,168.266 2001.69,178.232 2003.82,188.726 2005.94,199.739 2008.07,211.261 2010.2,223.282 2012.33,235.791 
  2014.45,248.777 2016.58,262.227 2018.71,276.131 2020.84,290.474 2022.97,305.245 2025.09,320.428 2027.22,336.012 2029.35,351.98 2031.48,368.317 2033.6,385.01 
  2035.73,402.042 2037.86,419.396 2039.99,437.057 2042.11,455.008 2044.24,473.231 2046.37,491.709 2048.5,510.424 2050.63,529.359 2052.75,548.495 2054.88,567.813 
  2057.01,587.295 2059.14,606.922 2061.26,626.674 2063.39,646.533 2065.52,666.478 2067.65,686.491 2069.77,706.552 2071.9,726.641 2074.03,746.739 2076.16,766.825 
  2078.29,786.88 2080.41,806.884 2082.54,826.818 2084.67,846.662 2086.8,866.398 2088.92,886.004 2091.05,905.464 2093.18,924.757 2095.31,943.864 2097.43,962.768 
  2099.56,981.45 2101.69,999.892 2103.82,1018.08 2105.95,1035.99 2108.07,1053.6 2110.2,1070.91 2112.33,1087.89 2114.46,1104.54 2116.58,1120.82 2118.71,1136.73 
  2120.84,1152.26 2122.97,1167.38 2125.09,1182.09 2127.22,1196.37 2129.35,1210.21 2131.48,1223.59 2133.6,1236.51 2135.73,1248.95 2137.86,1260.9 2139.99,1272.35 
  2142.12,1283.28 2144.24,1293.7 2146.37,1303.59 2148.5,1312.94 2150.63,1321.74 2152.75,1329.99 2154.88,1337.68 2157.01,1344.8 2159.14,1351.34 2161.26,1357.31 
  2163.39,1362.69 2165.52,1367.48 2167.65,1371.68 2169.78,1375.28 2171.9,1378.28 2174.03,1380.68 2176.16,1382.47 2178.29,1383.66 2180.41,1384.24 2182.54,1384.21 
  2184.67,1383.57 2186.8,1382.33 2188.92,1380.48 2191.05,1378.02 2193.18,1374.96 2195.31,1371.3 2197.44,1367.05 2199.56,1362.2 2201.69,1356.76 2203.82,1350.74 
  2205.95,1344.14 2208.07,1336.97 2210.2,1329.22 2212.33,1320.92 2214.46,1312.06 2216.58,1302.66 2218.71,1292.72 2220.84,1282.25 2222.97,1271.27 2225.1,1259.77 
  2227.22,1247.77 2229.35,1235.29 2231.48,1222.33 2233.61,1208.9 2235.73,1195.02 2237.86,1180.7 2239.99,1165.95 2242.12,1150.78 2244.24,1135.22 2246.37,1119.27 
  2248.5,1102.95 2250.63,1086.27 2252.75,1069.26 2254.88,1051.92 2257.01,1034.27 2259.14,1016.33 2261.27,998.124 2263.39,979.658 2265.52,960.953 2267.65,942.028 
  2269.78,922.901 2271.9,903.591 2274.03,884.116 2276.16,864.495 2278.29,844.748 2280.41,824.893 2282.54,804.95 2284.67,784.939 2286.8,764.88 2288.93,744.791 
  2291.05,724.692 2293.18,704.604 2295.31,684.546 2297.44,664.538 2299.56,644.599 2301.69,624.748 2303.82,605.006 2305.95,585.391 2308.07,565.923 2310.2,546.621 
  2312.33,527.502 2314.46,508.587 2316.59,489.892 2318.71,471.436 2320.84,453.238 2322.97,435.313 2325.1,417.68 2327.22,400.354 2329.35,383.353 2331.48,366.693 
  2333.61,350.389 2335.73,334.456 2337.86,318.91 2339.99,303.764 2342.12,289.033 2344.25,274.73 2346.37,260.868 2348.5,247.461 2350.63,234.519 2352.76,222.056 
  
  "/>
</svg>
